<svg width="214" height="80" viewBox="0 0 214 80" fill="none" xmlns="http://www.w3.org/2000/svg">
<path d="M2.58415 73.3874H0V72.7422H5.81434V73.3874H3.23019V79.839H2.58415V73.3874Z" fill="#725E83"/>
<path d="M12.4365 79.1935V79.8386H7.42969V72.5806H12.4365V73.2257H8.23723V75.8064H11.952V76.4515H8.23723V79.1935H12.4365Z" fill="#725E83"/>
<path d="M19.0577 79.8386L16.7966 76.6128L14.5355 79.8386H13.5664L16.3121 76.129L13.7279 72.5806H14.5355L16.6351 75.4838L18.7347 72.5806H19.5423L16.9581 76.129L19.7038 79.8386H19.0577Z" fill="#725E83"/>
<path d="M25.8403 77.9031H21.8026L20.995 79.8386H20.1875L23.4177 72.5806H24.2252L27.4554 79.8386H26.6479L25.8403 77.9031ZM25.5173 77.4193L23.7407 73.5483L22.1256 77.4193H25.5173Z" fill="#725E83"/>
<path d="M28.4258 79.0322L28.7488 78.387C29.2333 78.8709 30.2024 79.1935 31.1714 79.1935C32.4635 79.1935 33.1096 78.7096 33.1096 77.9031C33.1096 75.9677 28.7488 77.0967 28.7488 74.516C28.7488 73.387 29.5563 72.5806 31.3329 72.5806C32.1405 72.5806 32.948 72.7419 33.5941 73.2257L33.2711 73.8709C32.625 73.5483 31.979 73.2257 31.3329 73.2257C30.0409 73.2257 29.3948 73.8709 29.3948 74.516C29.3948 76.4515 33.7556 75.3225 33.7556 77.9031C33.7556 79.0322 32.948 79.8386 31.0099 79.8386C30.0409 79.9999 28.9103 79.516 28.4258 79.0322Z" fill="#725E83"/>
<path d="M38.1172 76.2902C38.1172 74.1935 39.7323 72.5806 41.8319 72.5806C42.801 72.5806 43.77 72.9031 44.4161 73.5483L44.093 74.1935C43.447 73.5483 42.801 73.387 41.9934 73.387C40.2168 73.387 38.9247 74.6773 38.9247 76.2902C38.9247 78.0644 40.2168 79.1935 41.9934 79.1935C42.801 79.1935 43.6085 78.8709 44.093 78.387L44.5776 78.8709C43.9315 79.516 42.9625 79.9999 41.9934 79.9999C39.7323 79.9999 38.1172 78.387 38.1172 76.2902Z" fill="#725E83"/>
<path d="M45.8672 76.2902C45.8672 74.1935 47.4823 72.5806 49.5819 72.5806C51.6815 72.5806 53.2966 74.1935 53.2966 76.2902C53.2966 78.387 51.6815 79.9999 49.5819 79.9999C47.3208 79.9999 45.8672 78.387 45.8672 76.2902ZM52.6506 76.2902C52.6506 74.516 51.3585 73.387 49.5819 73.387C47.8053 73.387 46.5132 74.6773 46.5132 76.2902C46.5132 78.0644 47.8053 79.1935 49.5819 79.1935C51.3585 79.1935 52.6506 78.0644 52.6506 76.2902Z" fill="#725E83"/>
<path d="M55.3984 76.7741V72.5806H56.206V76.6128C56.206 78.387 57.0135 79.0322 58.4671 79.0322C59.9207 79.0322 60.7282 78.2257 60.7282 76.6128V72.5806H61.5358V76.7741C61.5358 78.8709 60.4052 79.8386 58.6286 79.8386C56.529 79.9999 55.3984 78.8709 55.3984 76.7741Z" fill="#725E83"/>
<path d="M69.9342 72.7422V80.0003H69.2882L64.6044 74.1938V80.0003H63.7969V72.7422H64.6044L69.2882 78.5486V72.7422H69.9342Z" fill="#725E83"/>
<path d="M72.0352 76.2902C72.0352 74.1935 73.6503 72.5806 75.7499 72.5806C76.7189 72.5806 77.688 72.9031 78.334 73.5483L78.011 74.1935C77.365 73.5483 76.7189 73.387 75.9114 73.387C74.1348 73.387 72.8427 74.6773 72.8427 76.2902C72.8427 78.0644 74.1348 79.1935 75.9114 79.1935C76.7189 79.1935 77.5265 78.8709 78.011 78.387L78.4955 78.8709C77.8495 79.516 76.8804 79.9999 75.9114 79.9999C73.6503 79.9999 72.0352 78.387 72.0352 76.2902Z" fill="#725E83"/>
<path d="M80.4297 72.7422H81.2372V80.0003H80.4297V72.7422Z" fill="#725E83"/>
<path d="M83.8242 72.7422H84.6318V79.1938H88.6695V79.839H83.8242V72.7422Z" fill="#725E83"/>
<path d="M92.707 76.2902C92.707 74.1935 94.3221 72.5806 96.4218 72.5806C98.5214 72.5806 100.136 74.1935 100.136 76.2902C100.136 78.387 98.5214 79.9999 96.4218 79.9999C94.3221 79.9999 92.707 78.387 92.707 76.2902ZM99.4904 76.2902C99.4904 74.516 98.1984 73.387 96.4218 73.387C94.6451 73.387 93.3531 74.6773 93.3531 76.2902C93.3531 78.0644 94.6451 79.1935 96.4218 79.1935C98.1984 79.1935 99.4904 78.0644 99.4904 76.2902Z" fill="#725E83"/>
<path d="M108.372 72.7422V80.0003H107.726L103.042 74.1938V80.0003H102.234V72.7422H102.88L107.564 78.5486V72.7422H108.372Z" fill="#725E83"/>
<path d="M114.995 73.387V76.129H118.71V76.7741H114.995V79.8386H114.188V72.5806H119.194V73.2257H114.995V73.387Z" fill="#725E83"/>
<path d="M125.168 77.9031H121.131L120.323 79.8386H119.516L122.746 72.5806H123.553L126.784 79.8386H125.976L125.168 77.9031ZM124.845 77.4193L123.069 73.5483L121.454 77.4193H124.845Z" fill="#725E83"/>
<path d="M135.828 72.7419V79.9999H135.02V74.1935L132.275 79.0322H131.952L129.206 74.1935V79.8386H128.398V72.5806H129.044L132.113 77.9031L135.182 72.5806H135.828V72.7419Z" fill="#725E83"/>
<path d="M138.574 72.7422H139.382V80.0003H138.574V72.7422Z" fill="#725E83"/>
<path d="M142.129 72.7422H142.936V79.1938H146.974V79.839H142.129V72.7422Z" fill="#725E83"/>
<path d="M150.203 77.4196V79.839H149.395V77.4196L146.488 72.7422H147.296L149.718 76.7744L152.141 72.7422H152.949L150.203 77.4196Z" fill="#725E83"/>
<path d="M163.608 72.7422L160.378 80.0003H159.57L156.34 72.7422H157.147L159.893 79.0325L162.639 72.7422H163.608Z" fill="#725E83"/>
<path d="M165.062 72.7422H165.87V80.0003H165.062V72.7422Z" fill="#725E83"/>
<path d="M167.969 76.2902C167.969 74.1935 169.584 72.5806 171.683 72.5806C173.783 72.5806 175.398 74.1935 175.398 76.2902C175.398 78.387 173.783 79.9999 171.683 79.9999C169.584 79.9999 167.969 78.387 167.969 76.2902ZM174.752 76.2902C174.752 74.516 173.46 73.387 171.683 73.387C169.907 73.387 168.615 74.6773 168.615 76.2902C168.615 78.0644 169.907 79.1935 171.683 79.1935C173.46 79.1935 174.752 78.0644 174.752 76.2902Z" fill="#725E83"/>
<path d="M177.5 72.7422H178.308V79.1938H182.345V79.839H177.5V72.7422Z" fill="#725E83"/>
<path d="M189.128 79.1935V79.8386H184.121V72.5806H189.128V73.2257H184.929V75.8064H188.643V76.4515H184.929V79.1935H189.128Z" fill="#725E83"/>
<path d="M197.204 72.7422V80.0003H196.558L191.874 74.1938V80.0003H191.066V72.7422H191.712L196.396 78.5486V72.7422H197.204Z" fill="#725E83"/>
<path d="M199.301 76.2902C199.301 74.1935 200.916 72.5806 203.015 72.5806C203.985 72.5806 204.954 72.9031 205.6 73.5483L205.115 74.0322C204.469 73.387 203.823 73.2257 203.015 73.2257C201.239 73.2257 199.947 74.5161 199.947 76.129C199.947 77.9032 201.239 79.0322 203.015 79.0322C203.823 79.0322 204.631 78.7096 205.115 78.2257L205.6 78.7096C204.954 79.3548 203.985 79.8386 203.015 79.8386C200.916 79.9999 199.301 78.387 199.301 76.2902Z" fill="#725E83"/>
<path d="M212.87 79.1935V79.8386H207.863V72.5806H212.87V73.2257H208.671V75.8064H212.386V76.4515H208.671V79.1935H212.87Z" fill="#725E83"/>
<path d="M87.0521 65.3225C84.791 65.3225 83.0143 64.9999 81.5608 64.3548C80.1072 63.7096 78.9766 62.9031 78.1691 61.7741C77.3615 60.6451 76.7155 59.3548 76.3925 57.9032C76.0694 56.4515 75.9079 54.9999 75.9079 53.387V25.4838H70.5781V24.516C73.1623 23.5483 75.5849 22.0967 77.846 19.8386C80.1072 17.5806 81.7223 15.3225 82.8528 12.5806H83.8219V24.0322H93.5125V25.4838H83.8219V50.9677C83.8219 52.4193 83.8219 53.8709 83.9834 55.1612C84.1449 56.6128 84.3064 57.7419 84.791 58.8709C85.2755 59.9999 85.76 60.9677 86.5676 61.6128C87.3751 62.258 88.5057 62.5806 89.9593 62.5806C91.7359 62.5806 93.0279 62.258 94.1585 61.4515C95.1276 60.6451 96.0966 59.8386 96.7427 58.8709L97.5502 59.3548C96.7427 60.8064 95.4506 62.0967 93.674 63.387C91.8974 64.6773 89.6362 65.3225 87.0521 65.3225Z" fill="#624B78"/>
<path d="M101.59 44.839C101.59 41.7744 102.074 38.7099 103.205 36.1293C104.336 33.3874 105.951 31.1293 107.889 29.0325C109.827 27.097 112.249 25.4841 114.995 24.3551C117.741 23.2261 120.648 22.7422 123.878 22.7422C124.686 22.7422 125.655 22.7422 126.947 22.9035C128.239 23.0648 129.531 23.3873 130.823 23.8712C132.115 24.3551 133.084 25.0003 134.053 25.8067C135.022 26.6132 135.345 27.7422 135.345 29.1938C135.345 30.0003 135.022 30.8067 134.538 31.6132C134.053 32.2583 133.246 32.7422 131.954 32.7422C131.146 32.7422 130.339 32.4196 129.692 31.7744C129.046 31.1293 128.723 30.1615 128.723 29.0325C128.723 28.5486 128.723 28.0648 128.885 27.5809C129.046 27.097 129.046 26.7744 129.046 26.7744C129.046 26.4519 128.885 26.1293 128.562 25.8067C128.239 25.4841 127.754 25.1615 127.27 25.0003C126.785 24.839 126.139 24.6777 125.655 24.5164C125.009 24.3551 124.524 24.3551 123.878 24.3551C121.294 24.3551 119.194 25.0003 117.579 26.1293C115.803 27.2583 114.511 28.8712 113.38 30.8067C112.249 32.7422 111.603 35.0003 111.119 37.2583C110.634 39.6777 110.473 42.097 110.473 44.3551C110.473 50.3228 111.765 54.839 114.188 58.2261C116.61 61.6132 120.002 63.2261 124.04 63.2261C125.493 63.2261 126.947 63.0648 128.239 62.7422C129.531 62.4196 130.662 61.9357 131.631 61.2906C132.6 60.6454 133.407 60.1616 134.215 59.5164C135.022 58.8712 135.668 58.2261 136.153 57.7422L136.799 58.3874C134.861 60.8067 132.438 62.5809 129.854 63.7099C127.27 64.839 124.524 65.4841 121.617 65.4841C118.871 65.4841 116.287 65.0003 113.865 64.1938C111.442 63.2261 109.342 61.9357 107.566 60.1615C105.789 58.3874 104.336 56.2906 103.366 53.7099C102.074 51.1293 101.59 48.0648 101.59 44.839Z" fill="#624B78"/>
<path d="M155.533 57.4194C155.533 58.871 155.856 59.8387 156.341 60.6452C156.825 61.4516 157.471 62.0968 158.279 62.4194C159.086 62.9032 159.894 63.0645 160.863 63.2258C161.832 63.3871 162.801 63.3871 163.77 63.3871V64.3548C161.832 64.3548 160.217 64.3548 158.925 64.3548C157.794 64.3548 156.825 64.3548 156.018 64.1936C155.21 64.1936 154.564 64.1936 153.918 64.0323C153.272 64.0323 152.464 64.0323 151.657 64.0323C150.849 64.0323 150.042 64.0323 149.396 64.0323C148.75 64.0323 148.104 64.0323 147.458 64.1936C146.812 64.1936 146.004 64.1936 145.035 64.3548C144.066 64.3548 142.935 64.3548 141.32 64.3548V63.3871C142.289 63.3871 143.097 63.3871 143.904 63.2258C144.712 63.0645 145.358 62.9032 145.843 62.5806C146.327 62.2581 146.812 61.6129 147.135 60.9677C147.458 60.3226 147.619 59.3548 147.619 58.0645V25.4839H141.482V24.0323H147.619V19.3548C147.619 18.5484 147.619 17.5806 147.781 16.2903C147.781 15 148.104 13.7097 148.265 12.2581C148.588 10.9677 149.073 9.51613 149.719 8.06452C150.365 6.6129 151.334 5.32258 152.626 4.03226C153.918 2.90323 155.533 1.93548 157.31 1.12903C159.248 0.322581 161.509 0 164.416 0C165.385 0 166.516 0 167.969 0.16129C169.423 0.322581 170.715 0.645161 172.007 1.12903C173.299 1.6129 174.43 2.25806 175.399 3.06452C176.368 3.87097 176.852 5 176.852 6.45161C176.852 7.25806 176.691 7.90323 176.206 8.54839C175.722 9.19355 175.076 9.51613 173.945 9.51613C173.299 9.51613 172.653 9.35484 172.007 8.87097C171.523 8.3871 171.038 7.90323 170.715 7.09677C170.392 6.29032 170.231 5.64516 170.231 5.16129C170.231 4.83871 170.231 4.51613 170.231 4.35484C169.746 3.54839 169.1 2.74194 168.292 2.25806C167.485 1.77419 166.193 1.45161 164.416 1.45161C162.478 1.45161 160.863 1.93548 159.571 2.90323C158.44 3.87097 157.471 5 156.825 6.45161C156.179 7.90323 155.856 9.19355 155.533 10.8065C155.372 12.2581 155.21 13.7097 155.21 14.8387V24.3548H164.901V25.8065H155.21V57.4194H155.533Z" fill="#624B78"/>
<path d="M171.361 23.71C172.653 23.71 173.622 23.71 174.429 23.71C175.237 23.71 175.883 23.71 176.529 23.8713C177.175 23.8713 177.821 23.8713 178.306 24.0325C178.952 24.0325 179.598 24.0325 180.567 24.0325C181.536 24.0325 182.343 24.0325 182.989 24.0325C183.635 24.0325 184.281 24.0325 184.928 23.8713C185.574 23.8713 186.381 23.8713 187.189 23.71C187.996 23.71 188.965 23.71 190.257 23.71V24.6777C189.127 24.6777 188.158 24.839 187.189 25.3229C186.22 25.8067 185.735 26.7745 185.735 28.0648C185.735 28.8713 185.897 29.6777 186.22 30.4842L196.395 55.968L205.762 31.4519C206.247 30.3229 206.408 29.1938 206.408 28.3874C206.408 27.0971 205.924 26.1293 204.955 25.6454C203.986 25.1616 202.855 24.839 201.401 24.839V23.8713C202.371 23.8713 203.017 23.8713 203.663 23.8713C204.147 23.8713 204.793 23.8713 205.116 24.0325C205.601 24.0325 205.924 24.0325 206.408 24.1938C206.893 24.1938 207.216 24.1938 207.7 24.1938C208.185 24.1938 208.669 24.1938 208.992 24.1938C209.315 24.1938 209.8 24.1938 210.123 24.0325C210.608 24.0325 211.092 24.0325 211.577 23.8713C212.061 23.8713 212.869 23.8713 213.676 23.8713V24.839C212.223 24.839 211.092 25.3229 210.123 26.4519C209.154 27.4196 208.185 29.0325 207.377 31.2906L194.134 65.968H192.357L178.952 33.5487C178.629 32.7422 178.144 31.7745 177.66 30.6454C177.175 29.6777 176.691 28.71 176.045 27.7422C175.398 26.9358 174.752 26.1293 173.945 25.6454C173.137 25.1616 172.168 24.839 171.199 24.839V23.71H171.361Z" fill="#624B78"/>
<path d="M18.2504 6.93506L31.4942 7.09635L31.6557 17.7415L33.1093 18.8705H33.9168L34.2398 18.548L34.7244 18.8705C34.7244 18.8705 34.7244 19.5157 35.0474 19.677C35.3704 19.8383 35.8549 19.8383 36.178 19.8383C36.501 19.8383 36.9855 20.1609 36.9855 20.1609H37.793C37.793 20.1609 38.1161 20.4834 38.2776 20.6447C38.4391 20.806 38.4391 20.806 38.6006 20.6447C38.9236 20.4834 39.0851 20.3222 39.2466 20.3222C39.4081 20.3222 40.0542 20.3222 40.0542 20.3222C40.3772 20.806 39.5697 20.4834 40.3772 21.1286C41.1847 21.7738 41.3463 21.7738 41.3463 21.7738C41.6693 21.6125 41.6693 21.4512 41.6693 21.4512H42.3153L42.9613 21.6125C42.9613 21.6125 42.7998 21.7738 42.9613 21.9351C43.1229 22.0963 43.4459 21.9351 43.4459 21.9351L43.7689 21.7738L44.0919 21.6125L44.2534 21.4512C44.2534 21.4512 44.5764 21.1286 44.4149 21.6125C44.2534 22.0963 44.0919 22.0963 44.4149 22.2576C44.5764 22.4189 44.8995 22.4189 44.8995 22.4189C44.8995 22.4189 44.8995 22.4189 44.8995 22.2576C44.8995 22.0963 44.8995 21.9351 44.8995 21.9351C44.8995 21.9351 44.8995 21.7738 45.061 21.7738C45.2225 21.7738 45.061 21.7738 45.2225 21.6125C45.384 21.4512 45.384 21.2899 45.384 21.2899L45.5455 20.9673C45.5455 20.9673 45.707 20.6447 45.707 20.9673C45.707 21.2899 45.384 21.4512 45.707 21.4512L46.03 21.6125L46.1915 21.4512C46.1915 21.4512 46.1915 21.4512 46.3531 21.4512C46.3531 21.6125 46.5146 21.6125 46.5146 21.6125V21.4512V21.2899H46.6761C46.6761 21.2899 46.9991 21.1286 46.8376 21.2899C46.8376 21.4512 46.8376 21.4512 46.8376 21.4512L47.1606 21.6125C47.1606 21.6125 47.3221 21.4512 47.4836 21.6125C47.6451 21.7738 47.4836 21.6125 47.6451 21.7738C47.9681 21.9351 47.8066 21.7738 47.9681 21.9351C48.1297 22.0963 48.2912 22.0963 48.2912 22.0963C48.2912 22.0963 48.1297 21.9351 48.2912 21.9351C48.4527 21.9351 48.6142 21.9351 48.6142 21.9351C48.6142 21.9351 48.7757 21.9351 48.9372 21.9351C48.9372 21.9351 48.7757 22.0963 48.9372 21.9351C49.0987 21.7738 49.2602 21.6125 49.4217 21.6125H49.5832L50.2293 21.2899H50.3908C50.5523 21.2899 50.3908 21.1286 50.7138 21.2899C51.0368 21.2899 51.1983 21.1286 51.1983 21.1286L51.5213 20.9673C51.5213 20.9673 51.3598 20.9673 51.6829 21.1286C52.0059 21.1286 51.8444 21.2899 52.0059 21.2899C52.1674 21.2899 52.3289 21.7738 52.3289 21.7738C52.3289 21.7738 52.3289 21.7738 52.6519 21.6125C53.1364 21.1286 53.298 20.9673 53.298 20.9673C53.4595 20.9673 53.4595 20.9673 53.621 21.1286C53.944 21.2899 54.267 21.2899 54.4285 21.4512C54.59 21.6125 54.4285 21.2899 54.7515 21.6125C55.0746 21.9351 55.3976 22.0963 55.5591 22.0963C55.7206 22.0963 55.8821 22.0963 56.0436 22.2576C56.2051 22.4189 56.3666 22.4189 56.3666 22.4189L58.1432 22.7415L58.3047 22.5802L58.7893 30.806L58.9508 30.9673L59.5968 31.2899C59.5968 31.2899 59.5968 31.2899 59.5968 31.4512C59.5968 31.6125 59.5968 31.6125 59.7583 31.9351C59.9198 32.2576 59.9198 32.0963 59.9198 32.2576C59.9198 32.4189 59.9198 32.7415 59.9198 32.7415C59.9198 32.7415 59.7583 32.7415 59.9198 32.9028C60.0813 33.2254 60.5659 33.7092 60.5659 33.7092C60.5659 33.7092 60.5659 33.548 60.5659 33.8705C60.7274 34.0318 60.5659 34.3544 60.7274 34.5157C60.8889 34.677 61.3734 34.9996 61.3734 35.1609C61.3734 35.3222 61.5349 35.4834 61.5349 35.4834C61.5349 35.4834 61.3734 35.806 61.3734 35.9673C61.3734 36.1286 61.2119 36.4512 61.2119 36.6125C61.2119 36.7738 61.3734 37.0963 61.2119 37.2576C61.0504 37.4189 61.0504 37.5802 60.8889 37.9028C60.7274 38.0641 60.4044 38.3867 60.4044 38.8705C60.4044 39.3544 60.4044 39.0318 60.4044 39.3544C60.4044 39.677 60.4044 39.9996 60.4044 39.9996C60.4044 39.9996 60.5659 39.9996 60.5659 40.1609V40.9673C60.5659 40.9673 60.4044 41.1286 60.4044 41.2899C60.4044 41.4512 60.2429 41.9351 60.2429 41.9351L59.9198 42.2576L60.0813 42.5802V42.7415C60.0813 42.7415 59.7583 42.7415 59.5968 42.9028C59.4353 42.9028 59.1123 43.2254 59.1123 43.2254L58.1432 43.7092C58.1432 43.7092 57.3357 44.5157 57.0127 44.677C56.8512 44.8383 56.2051 45.1609 56.0436 45.3222C55.8821 45.4834 55.5591 45.6447 55.2361 45.806C55.0746 45.9673 55.0746 45.806 54.59 46.4512C54.1055 46.9351 53.944 47.0963 53.7825 47.4189C53.621 47.7415 53.7825 47.5802 53.4595 47.9028C53.1364 48.2254 52.9749 48.2254 52.4904 48.3867C52.0059 48.548 52.3289 48.2254 51.6829 48.3867C51.0368 48.548 50.8753 48.548 50.7138 48.8705C50.3908 49.0318 50.2293 49.3544 50.0678 49.3544C49.9063 49.3544 49.7447 49.3544 49.7447 49.3544V48.7093C49.7447 48.7093 49.9063 48.2254 49.5832 48.548C49.2602 48.8705 48.9372 48.8705 48.7757 49.0318C48.6142 49.0318 48.2912 49.0318 48.2912 49.0318V48.8705C48.2912 48.8705 48.1297 48.7093 47.8066 48.7093C47.6451 48.8705 47.3221 48.8705 47.3221 48.8705L47.1606 49.1931L47.4836 49.5157L48.1297 49.9996C48.1297 49.9996 48.2912 50.1609 48.4527 50.3222C48.4527 50.4834 47.3221 51.2899 47.3221 51.2899L47.1606 50.4834H46.6761C46.6761 50.4834 46.5146 50.3222 46.5146 50.4834C46.5146 50.6447 46.5146 50.806 46.5146 50.9673C46.5146 51.1286 46.6761 51.1286 46.6761 51.2899C46.6761 51.4512 46.6761 51.6125 46.5146 51.7738C46.353 51.9351 46.1915 51.9351 46.1915 52.0963C46.03 52.0963 46.1915 52.2576 45.707 52.2576C45.2225 52.2576 45.2225 52.0963 45.2225 52.0963C45.2225 52.2576 44.8995 52.2576 44.8995 52.2576V52.4189L45.2225 52.5802L45.5455 52.7415C45.5455 52.7415 45.5455 52.9028 45.5455 53.0641C45.384 53.2254 45.5455 53.0641 45.384 53.3867C45.2225 53.7092 44.738 53.3867 44.738 53.548C44.5764 53.7093 44.5764 53.548 44.4149 53.8705C44.4149 54.0318 43.7689 53.8705 44.4149 54.0318C45.061 54.1931 45.2225 54.3544 45.384 54.0318C45.5455 53.7093 46.1915 53.0641 45.707 53.7092L45.2225 54.3544C45.2225 54.3544 45.384 54.5157 45.061 54.8383C44.8995 55.1609 44.738 55.1609 44.5764 55.4834C44.4149 55.806 44.4149 55.9673 44.4149 56.1286C44.4149 56.2899 43.6074 58.2254 44.5764 60.4834C45.5455 62.7415 45.2225 62.4189 45.2225 62.4189C45.2225 62.4189 45.5455 63.0641 45.5455 63.3867C45.5455 63.548 45.707 64.0318 45.707 64.0318C45.707 64.0318 45.5455 64.1931 45.384 64.1931C45.2225 64.1931 45.061 64.1931 44.8995 64.3544C44.738 64.5157 44.738 64.5157 44.5764 64.677C44.4149 64.8383 44.4149 64.8383 44.2534 64.8383C44.2534 64.9996 44.0919 64.9996 44.0919 64.9996L43.6074 64.8383L42.9613 64.677C42.9613 64.677 42.3153 64.5157 42.1538 64.3544C41.9923 64.3544 41.8308 64.1931 41.3463 64.1931C40.8617 64.1931 41.1847 64.1931 40.7002 64.0318C40.2157 63.8705 39.8927 63.548 39.8927 63.548L38.7621 63.2254C38.7621 63.2254 38.4391 63.2254 38.1161 63.0641C37.9546 63.0641 37.47 62.7415 37.147 62.5802C36.9855 62.4189 36.3395 62.2576 36.3395 62.2576C36.3395 62.2576 35.8549 62.0963 35.8549 61.9351C35.8549 61.7738 35.2089 60.3222 35.2089 60.3222L35.0474 59.5157L34.5629 59.1931V58.2254C34.5629 58.2254 34.4014 57.7415 34.4014 57.5802C34.4014 57.4189 33.7553 57.0963 33.7553 57.0963L34.2398 56.6125C34.2398 56.6125 34.0783 56.1286 34.0783 55.9673C34.0783 55.806 33.7553 55.4834 33.7553 55.4834C33.7553 55.4834 33.4323 55.1609 33.2708 55.1609C33.1093 54.9996 32.9478 54.8383 32.9478 54.8383L32.3017 54.3544L31.6557 53.8705V53.7092C31.6557 53.7092 31.4942 53.548 31.3327 53.3867C31.1712 53.2254 30.6866 52.5802 30.5251 52.4189C30.3636 52.2576 30.0406 51.9351 30.0406 51.9351C30.0406 51.9351 29.8791 51.6125 29.8791 51.4512C29.7176 51.2899 29.5561 51.1286 29.3946 50.6447C29.2331 50.3222 28.91 49.3544 28.91 49.3544C28.91 49.3544 28.587 48.8705 28.587 48.7093C28.587 48.548 28.264 47.9028 28.264 47.9028C28.264 47.7415 28.1025 47.5802 28.1025 47.4189C28.1025 47.2576 26.9719 46.1286 26.9719 46.1286L26.6489 45.806L26.0029 45.3222C26.0029 45.3222 25.5183 45.3222 25.5183 44.9996C25.5183 44.8383 25.3568 44.3544 25.3568 44.3544C25.3568 44.3544 25.3568 44.3544 25.0338 44.0318C24.8723 43.7093 24.5493 43.7092 24.3878 43.7092C24.2263 43.7092 24.2263 43.8705 23.9032 43.7092C23.5802 43.7092 23.2572 43.3867 22.7727 43.548C22.2881 43.548 21.9651 43.7093 21.6421 43.548C21.3191 43.3867 21.1576 43.3867 20.8346 43.3867C20.673 43.3867 20.5115 43.3867 20.5115 43.3867C20.5115 43.3867 20.6731 43.2254 20.35 43.2254C20.027 43.3867 19.8655 43.548 19.8655 43.548L19.704 43.7092L18.5734 44.0318C18.5734 44.0318 18.4119 44.1931 18.4119 44.3544C18.4119 44.5157 18.0889 44.8383 18.0889 44.9996C17.9274 45.1609 18.0889 45.3222 17.9274 45.4834C17.7659 45.806 17.6044 45.806 17.6044 45.9673C17.6044 46.1286 17.6044 46.1286 17.4429 46.4512C17.1198 46.7738 16.6353 47.2576 16.6353 47.2576C16.6353 47.2576 16.4738 47.4189 16.3123 47.5802C16.1508 47.5802 15.5047 47.4189 15.1817 47.2576C14.8587 47.0963 14.6972 47.0963 14.3742 46.9351C14.0512 46.7738 14.3742 46.7738 13.2436 46.2899C11.9515 45.6447 11.79 45.6447 11.79 45.6447V45.3222C11.79 45.3222 11.6285 45.3222 11.6285 44.9996C11.3055 45.1609 11.144 44.9996 11.144 44.9996L10.0134 44.1931L9.69041 43.7092C9.69041 43.7092 9.85192 43.3867 9.69041 43.2254C9.5289 43.0641 9.69041 42.9028 9.5289 42.9028C9.36739 42.9028 9.36739 42.9028 9.20588 42.4189C8.88286 41.9351 8.88286 41.9351 8.88286 41.6125C8.88286 41.4512 8.88286 40.9673 8.88286 40.9673C8.88286 40.9673 9.20588 41.4512 9.04437 40.806C8.72135 40.1609 8.72135 40.1609 8.72135 39.9996C8.72135 39.8383 8.88286 39.9996 8.55984 39.5157C8.39834 39.0318 8.55984 39.1931 8.23683 38.8705C7.91381 38.548 7.42928 38.3867 7.26777 38.2254C7.26777 38.0641 5.81419 36.9351 5.81419 36.9351C5.81419 36.9351 5.65268 36.7738 5.49117 36.6125C5.32966 36.4512 5.00664 35.9673 5.00664 35.9673C5.00664 35.9673 4.84513 35.806 4.68362 35.806C4.52211 35.806 4.68362 35.9673 4.3606 35.6447C4.03758 35.3222 4.3606 35.3222 4.03758 35.1609C3.87607 34.9996 3.87607 34.8383 3.55305 34.677C3.39154 34.5157 2.90702 34.3544 2.90702 34.1931C2.90702 34.0318 2.584 33.7092 2.584 33.7092C2.584 33.7092 2.26098 33.548 2.26098 33.3867C2.26098 33.2254 2.09947 32.7415 2.09947 32.7415L1.93796 32.5802C1.77645 32.5802 1.45343 32.2576 1.29192 32.0963C1.13041 32.0963 0.968903 31.9351 0.807394 31.7738C0.645884 31.7738 0.645884 31.4512 0.645884 31.4512C0.645884 31.4512 0.645884 31.6125 0.645884 31.1286C0.645884 30.806 0.484375 30.6447 0.484375 30.6447L17.1198 31.6125L18.2504 6.93506Z" fill="#624B78"/>
</svg>
